<?xml version="1.0" standalone="no"?>
<!DOCTYPE svg PUBLIC "-//W3C//DTD SVG 20010904//EN"
 "http://www.w3.org/TR/2001/REC-SVG-20010904/DTD/svg10.dtd">
<svg version="1.0" xmlns="http://www.w3.org/2000/svg"
 width="1280.000000pt" height="1066.000000pt" viewBox="0 0 1280.000000 1066.000000"
 preserveAspectRatio="xMidYMid meet">
<g transform="translate(0.000000,1066.000000) scale(0.100000,-0.100000)"
fill="#000000" stroke="none">
<path d="M8408 10631 c-36 -16 -84 -42 -105 -59 -21 -17 -609 -603 -1308
-1301 -698 -699 -1274 -1271 -1280 -1271 -5 0 -388 378 -850 840 -650 649
-850 844 -885 859 -102 46 -210 9 -261 -91 -21 -41 -25 -120 -8 -165 5 -16
360 -379 805 -823 436 -437 794 -801 794 -807 0 -10 -491 -13 -2277 -15
l-2278 -3 -80 -23 c-336 -95 -569 -337 -649 -677 l-21 -90 -2 -3080 -3 -3080
21 -100 c38 -182 107 -325 214 -443 136 -149 290 -235 510 -281 l99 -21 5556
0 5556 0 99 21 c166 35 281 86 395 174 175 136 278 308 329 550 l21 99 0 3056
0 3055 -24 115 c-37 180 -92 295 -202 424 -104 124 -274 229 -449 278 l-80 23
-2962 3 c-2331 2 -2963 5 -2963 15 0 6 560 572 1243 1257 1180 1181 1245 1248
1271 1309 23 52 27 74 24 122 -5 69 -27 104 -84 136 -52 28 -86 27 -166 -6z
m687 -3733 c391 -108 681 -423 749 -815 23 -130 24 -4225 1 -4354 -37 -216
-134 -400 -289 -554 -156 -154 -341 -249 -556 -285 -46 -7 -1128 -10 -3675 -8
l-3610 3 -77 22 c-194 55 -351 147 -479 280 -126 130 -200 257 -256 438 l-28
90 0 2190 0 2190 28 88 c36 117 76 203 134 290 154 232 407 396 681 442 62 11
767 13 3677 12 l3600 -2 100 -27z m2286 -1702 c131 -41 258 -137 331 -251 21
-32 50 -96 64 -142 23 -73 26 -95 22 -195 -5 -125 -24 -192 -80 -286 -68 -112
-187 -209 -311 -252 -87 -31 -249 -38 -337 -15 -275 71 -465 330 -448 609 16
254 193 469 439 536 86 23 241 22 320 -4z m-27 -1446 c201 -51 360 -199 421
-393 29 -91 34 -237 11 -324 -56 -212 -218 -373 -431 -429 -67 -18 -217 -18
-288 1 -273 71 -464 333 -444 609 26 371 376 627 731 536z"/>
</g>
</svg>
